<svg width="200" height="200" viewBox="0 0 200 200" xmlns="http://www.w3.org/2000/svg">
  <!-- QR Code Background -->
  <rect width="200" height="200" fill="#f8f9fa" stroke="#e9ecef" stroke-width="2" rx="8"/>
  
  <!-- QR Code Pattern -->
  <g fill="#495057">
    <!-- Corner squares -->
    <rect x="20" y="20" width="40" height="40" rx="4"/>
    <rect x="140" y="20" width="40" height="40" rx="4"/>
    <rect x="20" y="140" width="40" height="40" rx="4"/>
    
    <!-- Inner corner squares -->
    <rect x="28" y="28" width="24" height="24" fill="#f8f9fa"/>
    <rect x="148" y="28" width="24" height="24" fill="#f8f9fa"/>
    <rect x="28" y="148" width="24" height="24" fill="#f8f9fa"/>
    
    <rect x="32" y="32" width="16" height="16"/>
    <rect x="152" y="32" width="16" height="16"/>
    <rect x="32" y="152" width="16" height="16"/>
    
    <!-- Data pattern -->
    <rect x="80" y="20" width="8" height="8"/>
    <rect x="96" y="20" width="8" height="8"/>
    <rect x="112" y="20" width="8" height="8"/>
    
    <rect x="20" y="80" width="8" height="8"/>
    <rect x="20" y="96" width="8" height="8"/>
    <rect x="20" y="112" width="8" height="8"/>
    
    <rect x="80" y="80" width="8" height="8"/>
    <rect x="96" y="96" width="8" height="8"/>
    <rect x="112" y="80" width="8" height="8"/>
    <rect x="128" y="96" width="8" height="8"/>
    
    <rect x="80" y="112" width="8" height="8"/>
    <rect x="112" y="112" width="8" height="8"/>
    <rect x="128" y="112" width="8" height="8"/>
    
    <rect x="140" y="80" width="8" height="8"/>
    <rect x="156" y="80" width="8" height="8"/>
    <rect x="172" y="80" width="8" height="8"/>
    
    <rect x="140" y="96" width="8" height="8"/>
    <rect x="172" y="96" width="8" height="8"/>
    
    <rect x="80" y="140" width="8" height="8"/>
    <rect x="96" y="140" width="8" height="8"/>
    <rect x="112" y="140" width="8" height="8"/>
    <rect x="128" y="140" width="8" height="8"/>
    
    <rect x="80" y="156" width="8" height="8"/>
    <rect x="112" y="156" width="8" height="8"/>
    <rect x="128" y="156" width="8" height="8"/>
    
    <rect x="80" y="172" width="8" height="8"/>
    <rect x="96" y="172" width="8" height="8"/>
    <rect x="112" y="172" width="8" height="8"/>
    <rect x="128" y="172" width="8" height="8"/>
  </g>
  
  <!-- QR Code Scanner Text -->
  <text x="100" y="195" text-anchor="middle" font-family="Arial, sans-serif" font-size="12" fill="#6c757d">QR Scanner</text>
</svg>